<mxfile host="app.diagrams.net" modified="2022-12-03T02:49:06.393Z" agent="5.0 (Windows NT 10.0; Win64; x64) AppleWebKit/537.36 (KHTML, like Gecko) Chrome/107.0.0.0 Safari/537.36" etag="7axKBUenIwGWLQlSndM9" version="20.6.0" type="github" pages="2">
  <diagram id="mQ1uJ8YeLea95ezi89ZV" name="Page-1">
    <mxGraphModel dx="1422" dy="705" grid="1" gridSize="10" guides="1" tooltips="1" connect="1" arrows="1" fold="1" page="1" pageScale="1" pageWidth="850" pageHeight="1100" math="0" shadow="0">
      <root>
        <mxCell id="0" />
        <mxCell id="1" parent="0" />
        <mxCell id="5alhqBslvUrmIMah3D22-20" value="`handles`" style="swimlane;fontStyle=0;childLayout=stackLayout;horizontal=1;startSize=26;fillColor=default;horizontalStack=0;resizeParent=1;resizeLast=0;collapsible=1;marginBottom=0;swimlaneFillColor=default;align=center;" parent="1" vertex="1">
          <mxGeometry x="40" y="40" width="160" height="156" as="geometry" />
        </mxCell>
        <mxCell id="5alhqBslvUrmIMah3D22-21" value="`id`" style="shape=partialRectangle;top=0;left=0;right=0;bottom=0;align=left;verticalAlign=top;spacingTop=-2;fillColor=none;spacingLeft=64;spacingRight=4;overflow=hidden;rotatable=0;points=[[0,0.5],[1,0.5]];portConstraint=eastwest;dropTarget=0;" parent="5alhqBslvUrmIMah3D22-20" vertex="1">
          <mxGeometry y="26" width="160" height="26" as="geometry" />
        </mxCell>
        <mxCell id="5alhqBslvUrmIMah3D22-22" value="PK" style="shape=partialRectangle;top=0;left=0;bottom=0;fillColor=none;align=left;verticalAlign=middle;spacingLeft=4;spacingRight=4;overflow=hidden;rotatable=180;points=[];portConstraint=eastwest;part=1;" parent="5alhqBslvUrmIMah3D22-21" vertex="1" connectable="0">
          <mxGeometry width="54" height="26" as="geometry" />
        </mxCell>
        <mxCell id="5alhqBslvUrmIMah3D22-23" value="`username`" style="shape=partialRectangle;top=0;left=0;right=0;bottom=0;align=left;verticalAlign=top;spacingTop=-2;fillColor=none;spacingLeft=64;spacingRight=4;overflow=hidden;rotatable=0;points=[[0,0.5],[1,0.5]];portConstraint=eastwest;dropTarget=0;" parent="5alhqBslvUrmIMah3D22-20" vertex="1">
          <mxGeometry y="52" width="160" height="26" as="geometry" />
        </mxCell>
        <mxCell id="5alhqBslvUrmIMah3D22-24" value="" style="shape=partialRectangle;top=0;left=0;bottom=0;fillColor=none;align=left;verticalAlign=middle;spacingLeft=4;spacingRight=4;overflow=hidden;rotatable=180;points=[];portConstraint=eastwest;part=1;" parent="5alhqBslvUrmIMah3D22-23" vertex="1" connectable="0">
          <mxGeometry width="54" height="26" as="geometry" />
        </mxCell>
        <mxCell id="5alhqBslvUrmIMah3D22-25" value="`description`" style="shape=partialRectangle;top=0;left=0;right=0;bottom=0;align=left;verticalAlign=top;spacingTop=-2;fillColor=none;spacingLeft=64;spacingRight=4;overflow=hidden;rotatable=0;points=[[0,0.5],[1,0.5]];portConstraint=eastwest;dropTarget=0;" parent="5alhqBslvUrmIMah3D22-20" vertex="1">
          <mxGeometry y="78" width="160" height="26" as="geometry" />
        </mxCell>
        <mxCell id="5alhqBslvUrmIMah3D22-26" value="" style="shape=partialRectangle;top=0;left=0;bottom=0;fillColor=none;align=left;verticalAlign=middle;spacingLeft=4;spacingRight=4;overflow=hidden;rotatable=180;points=[];portConstraint=eastwest;part=1;" parent="5alhqBslvUrmIMah3D22-25" vertex="1" connectable="0">
          <mxGeometry width="54" height="26" as="geometry" />
        </mxCell>
        <mxCell id="5alhqBslvUrmIMah3D22-27" value="`name`" style="shape=partialRectangle;top=0;left=0;right=0;bottom=0;align=left;verticalAlign=top;spacingTop=-2;fillColor=none;spacingLeft=64;spacingRight=4;overflow=hidden;rotatable=0;points=[[0,0.5],[1,0.5]];portConstraint=eastwest;dropTarget=0;" parent="5alhqBslvUrmIMah3D22-20" vertex="1">
          <mxGeometry y="104" width="160" height="26" as="geometry" />
        </mxCell>
        <mxCell id="5alhqBslvUrmIMah3D22-28" value="" style="shape=partialRectangle;top=0;left=0;bottom=0;fillColor=none;align=left;verticalAlign=middle;spacingLeft=4;spacingRight=4;overflow=hidden;rotatable=180;points=[];portConstraint=eastwest;part=1;" parent="5alhqBslvUrmIMah3D22-27" vertex="1" connectable="0">
          <mxGeometry width="54" height="26" as="geometry" />
        </mxCell>
        <mxCell id="5alhqBslvUrmIMah3D22-29" value="" style="shape=partialRectangle;top=0;left=0;right=0;bottom=0;align=left;verticalAlign=top;spacingTop=-2;fillColor=none;spacingLeft=64;spacingRight=4;overflow=hidden;rotatable=0;points=[[0,0.5],[1,0.5]];portConstraint=eastwest;dropTarget=0;" parent="5alhqBslvUrmIMah3D22-20" vertex="1">
          <mxGeometry y="130" width="160" height="26" as="geometry" />
        </mxCell>
        <mxCell id="5alhqBslvUrmIMah3D22-30" value="" style="shape=partialRectangle;top=0;left=0;bottom=0;fillColor=none;align=left;verticalAlign=middle;spacingLeft=4;spacingRight=4;overflow=hidden;rotatable=180;points=[];portConstraint=eastwest;part=1;" parent="5alhqBslvUrmIMah3D22-29" vertex="1" connectable="0">
          <mxGeometry width="54" height="26" as="geometry" />
        </mxCell>
        <mxCell id="5alhqBslvUrmIMah3D22-31" value="`tweets`" style="swimlane;fontStyle=0;childLayout=stackLayout;horizontal=1;startSize=26;fillColor=default;horizontalStack=0;resizeParent=1;resizeLast=0;collapsible=1;marginBottom=0;swimlaneFillColor=default;align=center;" parent="1" vertex="1">
          <mxGeometry x="280" y="40" width="210" height="364" as="geometry" />
        </mxCell>
        <mxCell id="5alhqBslvUrmIMah3D22-32" value="`id`" style="shape=partialRectangle;top=0;left=0;right=0;bottom=0;align=left;verticalAlign=top;spacingTop=-2;fillColor=none;spacingLeft=64;spacingRight=4;overflow=hidden;rotatable=0;points=[[0,0.5],[1,0.5]];portConstraint=eastwest;dropTarget=0;" parent="5alhqBslvUrmIMah3D22-31" vertex="1">
          <mxGeometry y="26" width="210" height="26" as="geometry" />
        </mxCell>
        <mxCell id="5alhqBslvUrmIMah3D22-33" value="PK" style="shape=partialRectangle;top=0;left=0;bottom=0;fillColor=none;align=left;verticalAlign=middle;spacingLeft=4;spacingRight=4;overflow=hidden;rotatable=180;points=[];portConstraint=eastwest;part=1;" parent="5alhqBslvUrmIMah3D22-32" vertex="1" connectable="0">
          <mxGeometry width="54" height="26" as="geometry" />
        </mxCell>
        <mxCell id="5alhqBslvUrmIMah3D22-34" value="`author_id`" style="shape=partialRectangle;top=0;left=0;right=0;bottom=0;align=left;verticalAlign=top;spacingTop=-2;fillColor=none;spacingLeft=64;spacingRight=4;overflow=hidden;rotatable=0;points=[[0,0.5],[1,0.5]];portConstraint=eastwest;dropTarget=0;" parent="5alhqBslvUrmIMah3D22-31" vertex="1">
          <mxGeometry y="52" width="210" height="26" as="geometry" />
        </mxCell>
        <mxCell id="5alhqBslvUrmIMah3D22-35" value="FK" style="shape=partialRectangle;top=0;left=0;bottom=0;fillColor=none;align=left;verticalAlign=middle;spacingLeft=4;spacingRight=4;overflow=hidden;rotatable=180;points=[];portConstraint=eastwest;part=1;" parent="5alhqBslvUrmIMah3D22-34" vertex="1" connectable="0">
          <mxGeometry width="54" height="26" as="geometry" />
        </mxCell>
        <mxCell id="5alhqBslvUrmIMah3D22-36" value="`text`" style="shape=partialRectangle;top=0;left=0;right=0;bottom=0;align=left;verticalAlign=top;spacingTop=-2;fillColor=none;spacingLeft=64;spacingRight=4;overflow=hidden;rotatable=0;points=[[0,0.5],[1,0.5]];portConstraint=eastwest;dropTarget=0;" parent="5alhqBslvUrmIMah3D22-31" vertex="1">
          <mxGeometry y="78" width="210" height="26" as="geometry" />
        </mxCell>
        <mxCell id="5alhqBslvUrmIMah3D22-37" value="" style="shape=partialRectangle;top=0;left=0;bottom=0;fillColor=none;align=left;verticalAlign=middle;spacingLeft=4;spacingRight=4;overflow=hidden;rotatable=180;points=[];portConstraint=eastwest;part=1;" parent="5alhqBslvUrmIMah3D22-36" vertex="1" connectable="0">
          <mxGeometry width="54" height="26" as="geometry" />
        </mxCell>
        <mxCell id="5alhqBslvUrmIMah3D22-38" value="`created_at`" style="shape=partialRectangle;top=0;left=0;right=0;bottom=0;align=left;verticalAlign=top;spacingTop=-2;fillColor=none;spacingLeft=64;spacingRight=4;overflow=hidden;rotatable=0;points=[[0,0.5],[1,0.5]];portConstraint=eastwest;dropTarget=0;" parent="5alhqBslvUrmIMah3D22-31" vertex="1">
          <mxGeometry y="104" width="210" height="26" as="geometry" />
        </mxCell>
        <mxCell id="5alhqBslvUrmIMah3D22-39" value="" style="shape=partialRectangle;top=0;left=0;bottom=0;fillColor=none;align=left;verticalAlign=middle;spacingLeft=4;spacingRight=4;overflow=hidden;rotatable=180;points=[];portConstraint=eastwest;part=1;" parent="5alhqBslvUrmIMah3D22-38" vertex="1" connectable="0">
          <mxGeometry width="54" height="26" as="geometry" />
        </mxCell>
        <mxCell id="5alhqBslvUrmIMah3D22-40" value="`conversation_id`" style="shape=partialRectangle;top=0;left=0;right=0;bottom=0;align=left;verticalAlign=top;spacingTop=-2;fillColor=none;spacingLeft=64;spacingRight=4;overflow=hidden;rotatable=0;points=[[0,0.5],[1,0.5]];portConstraint=eastwest;dropTarget=0;" parent="5alhqBslvUrmIMah3D22-31" vertex="1">
          <mxGeometry y="130" width="210" height="26" as="geometry" />
        </mxCell>
        <mxCell id="5alhqBslvUrmIMah3D22-41" value="" style="shape=partialRectangle;top=0;left=0;bottom=0;fillColor=none;align=left;verticalAlign=middle;spacingLeft=4;spacingRight=4;overflow=hidden;rotatable=180;points=[];portConstraint=eastwest;part=1;" parent="5alhqBslvUrmIMah3D22-40" vertex="1" connectable="0">
          <mxGeometry width="54" height="26" as="geometry" />
        </mxCell>
        <mxCell id="5alhqBslvUrmIMah3D22-42" value="`in_reply_to_user_id`" style="shape=partialRectangle;top=0;left=0;right=0;bottom=0;align=left;verticalAlign=top;spacingTop=-2;fillColor=none;spacingLeft=64;spacingRight=4;overflow=hidden;rotatable=0;points=[[0,0.5],[1,0.5]];portConstraint=eastwest;dropTarget=0;" parent="5alhqBslvUrmIMah3D22-31" vertex="1">
          <mxGeometry y="156" width="210" height="26" as="geometry" />
        </mxCell>
        <mxCell id="5alhqBslvUrmIMah3D22-43" value="" style="shape=partialRectangle;top=0;left=0;bottom=0;fillColor=none;align=left;verticalAlign=middle;spacingLeft=4;spacingRight=4;overflow=hidden;rotatable=180;points=[];portConstraint=eastwest;part=1;" parent="5alhqBslvUrmIMah3D22-42" vertex="1" connectable="0">
          <mxGeometry width="54" height="26" as="geometry" />
        </mxCell>
        <mxCell id="5alhqBslvUrmIMah3D22-48" value="`powertrain_mentions`" style="shape=partialRectangle;top=0;left=0;right=0;bottom=0;align=left;verticalAlign=top;spacingTop=-2;fillColor=none;spacingLeft=64;spacingRight=4;overflow=hidden;rotatable=0;points=[[0,0.5],[1,0.5]];portConstraint=eastwest;dropTarget=0;" parent="5alhqBslvUrmIMah3D22-31" vertex="1">
          <mxGeometry y="182" width="210" height="26" as="geometry" />
        </mxCell>
        <mxCell id="5alhqBslvUrmIMah3D22-49" value="" style="shape=partialRectangle;top=0;left=0;bottom=0;fillColor=none;align=left;verticalAlign=middle;spacingLeft=4;spacingRight=4;overflow=hidden;rotatable=180;points=[];portConstraint=eastwest;part=1;" parent="5alhqBslvUrmIMah3D22-48" vertex="1" connectable="0">
          <mxGeometry width="54" height="26" as="geometry" />
        </mxCell>
        <mxCell id="5alhqBslvUrmIMah3D22-70" value="`hashtags`?" style="shape=partialRectangle;top=0;left=0;right=0;bottom=0;align=left;verticalAlign=top;spacingTop=-2;fillColor=none;spacingLeft=64;spacingRight=4;overflow=hidden;rotatable=0;points=[[0,0.5],[1,0.5]];portConstraint=eastwest;dropTarget=0;" parent="5alhqBslvUrmIMah3D22-31" vertex="1">
          <mxGeometry y="208" width="210" height="26" as="geometry" />
        </mxCell>
        <mxCell id="5alhqBslvUrmIMah3D22-71" value="" style="shape=partialRectangle;top=0;left=0;bottom=0;fillColor=none;align=left;verticalAlign=middle;spacingLeft=4;spacingRight=4;overflow=hidden;rotatable=180;points=[];portConstraint=eastwest;part=1;" parent="5alhqBslvUrmIMah3D22-70" vertex="1" connectable="0">
          <mxGeometry width="54" height="26" as="geometry" />
        </mxCell>
        <mxCell id="5alhqBslvUrmIMah3D22-72" value="`referenced_id`?" style="shape=partialRectangle;top=0;left=0;right=0;bottom=0;align=left;verticalAlign=top;spacingTop=-2;fillColor=none;spacingLeft=64;spacingRight=4;overflow=hidden;rotatable=0;points=[[0,0.5],[1,0.5]];portConstraint=eastwest;dropTarget=0;" parent="5alhqBslvUrmIMah3D22-31" vertex="1">
          <mxGeometry y="234" width="210" height="26" as="geometry" />
        </mxCell>
        <mxCell id="5alhqBslvUrmIMah3D22-73" value="" style="shape=partialRectangle;top=0;left=0;bottom=0;fillColor=none;align=left;verticalAlign=middle;spacingLeft=4;spacingRight=4;overflow=hidden;rotatable=180;points=[];portConstraint=eastwest;part=1;" parent="5alhqBslvUrmIMah3D22-72" vertex="1" connectable="0">
          <mxGeometry width="54" height="26" as="geometry" />
        </mxCell>
        <mxCell id="5alhqBslvUrmIMah3D22-50" style="edgeStyle=orthogonalEdgeStyle;rounded=0;orthogonalLoop=1;jettySize=auto;html=1;" parent="1" source="5alhqBslvUrmIMah3D22-34" target="5alhqBslvUrmIMah3D22-21" edge="1">
          <mxGeometry relative="1" as="geometry" />
        </mxCell>
        <mxCell id="5alhqBslvUrmIMah3D22-102" value="`sentiments`" style="swimlane;fontStyle=0;childLayout=stackLayout;horizontal=1;startSize=26;fillColor=default;horizontalStack=0;resizeParent=1;resizeLast=0;collapsible=1;marginBottom=0;swimlaneFillColor=default;align=center;" parent="1" vertex="1">
          <mxGeometry x="640" y="66" width="160" height="154" as="geometry" />
        </mxCell>
        <mxCell id="5alhqBslvUrmIMah3D22-103" value="`tweet_id`" style="shape=partialRectangle;top=0;left=0;right=0;bottom=0;align=left;verticalAlign=top;spacingTop=-2;fillColor=none;spacingLeft=64;spacingRight=4;overflow=hidden;rotatable=0;points=[[0,0.5],[1,0.5]];portConstraint=eastwest;dropTarget=0;" parent="5alhqBslvUrmIMah3D22-102" vertex="1">
          <mxGeometry y="26" width="160" height="26" as="geometry" />
        </mxCell>
        <mxCell id="5alhqBslvUrmIMah3D22-104" value="PK" style="shape=partialRectangle;top=0;left=0;bottom=0;fillColor=none;align=left;verticalAlign=middle;spacingLeft=4;spacingRight=4;overflow=hidden;rotatable=180;points=[];portConstraint=eastwest;part=1;" parent="5alhqBslvUrmIMah3D22-103" vertex="1" connectable="0">
          <mxGeometry width="54" height="26" as="geometry" />
        </mxCell>
        <mxCell id="5alhqBslvUrmIMah3D22-105" value="`powertrain`" style="shape=partialRectangle;top=0;left=0;right=0;bottom=0;align=left;verticalAlign=top;spacingTop=-2;fillColor=none;spacingLeft=64;spacingRight=4;overflow=hidden;rotatable=0;points=[[0,0.5],[1,0.5]];portConstraint=eastwest;dropTarget=0;" parent="5alhqBslvUrmIMah3D22-102" vertex="1">
          <mxGeometry y="52" width="160" height="26" as="geometry" />
        </mxCell>
        <mxCell id="5alhqBslvUrmIMah3D22-106" value="PK" style="shape=partialRectangle;top=0;left=0;bottom=0;fillColor=none;align=left;verticalAlign=middle;spacingLeft=4;spacingRight=4;overflow=hidden;rotatable=180;points=[];portConstraint=eastwest;part=1;" parent="5alhqBslvUrmIMah3D22-105" vertex="1" connectable="0">
          <mxGeometry width="54" height="26" as="geometry" />
        </mxCell>
        <mxCell id="5alhqBslvUrmIMah3D22-107" value="`value`" style="shape=partialRectangle;top=0;left=0;right=0;bottom=0;align=left;verticalAlign=top;spacingTop=-2;fillColor=none;spacingLeft=64;spacingRight=4;overflow=hidden;rotatable=0;points=[[0,0.5],[1,0.5]];portConstraint=eastwest;dropTarget=0;" parent="5alhqBslvUrmIMah3D22-102" vertex="1">
          <mxGeometry y="78" width="160" height="26" as="geometry" />
        </mxCell>
        <mxCell id="5alhqBslvUrmIMah3D22-108" value="" style="shape=partialRectangle;top=0;left=0;bottom=0;fillColor=none;align=left;verticalAlign=middle;spacingLeft=4;spacingRight=4;overflow=hidden;rotatable=180;points=[];portConstraint=eastwest;part=1;" parent="5alhqBslvUrmIMah3D22-107" vertex="1" connectable="0">
          <mxGeometry width="54" height="26" as="geometry" />
        </mxCell>
        <mxCell id="3Ao49o3wQ1Tk8LcrCFb2-9" value="????" style="shape=partialRectangle;top=0;left=0;right=0;bottom=0;align=left;verticalAlign=top;spacingTop=-2;fillColor=none;spacingLeft=64;spacingRight=4;overflow=hidden;rotatable=0;points=[[0,0.5],[1,0.5]];portConstraint=eastwest;dropTarget=0;" parent="5alhqBslvUrmIMah3D22-102" vertex="1">
          <mxGeometry y="104" width="160" height="26" as="geometry" />
        </mxCell>
        <mxCell id="3Ao49o3wQ1Tk8LcrCFb2-10" value="" style="shape=partialRectangle;top=0;left=0;bottom=0;fillColor=none;align=left;verticalAlign=middle;spacingLeft=4;spacingRight=4;overflow=hidden;rotatable=180;points=[];portConstraint=eastwest;part=1;" parent="3Ao49o3wQ1Tk8LcrCFb2-9" vertex="1" connectable="0">
          <mxGeometry width="54" height="26" as="geometry" />
        </mxCell>
        <mxCell id="5alhqBslvUrmIMah3D22-113" style="edgeStyle=orthogonalEdgeStyle;rounded=0;orthogonalLoop=1;jettySize=auto;html=1;" parent="1" source="5alhqBslvUrmIMah3D22-103" edge="1">
          <mxGeometry relative="1" as="geometry">
            <mxPoint x="580" y="270" as="targetPoint" />
          </mxGeometry>
        </mxCell>
        <mxCell id="5alhqBslvUrmIMah3D22-114" value="`aliases`" style="swimlane;fontStyle=0;childLayout=stackLayout;horizontal=1;startSize=26;fillColor=default;horizontalStack=0;resizeParent=1;resizeLast=0;collapsible=1;marginBottom=0;swimlaneFillColor=default;align=center;" parent="1" vertex="1">
          <mxGeometry x="590" y="360" width="160" height="130" as="geometry" />
        </mxCell>
        <mxCell id="5alhqBslvUrmIMah3D22-115" value="`powertrain`" style="shape=partialRectangle;top=0;left=0;right=0;bottom=0;align=left;verticalAlign=top;spacingTop=-2;fillColor=none;spacingLeft=64;spacingRight=4;overflow=hidden;rotatable=0;points=[[0,0.5],[1,0.5]];portConstraint=eastwest;dropTarget=0;" parent="5alhqBslvUrmIMah3D22-114" vertex="1">
          <mxGeometry y="26" width="160" height="26" as="geometry" />
        </mxCell>
        <mxCell id="5alhqBslvUrmIMah3D22-116" value="PK" style="shape=partialRectangle;top=0;left=0;bottom=0;fillColor=none;align=left;verticalAlign=middle;spacingLeft=4;spacingRight=4;overflow=hidden;rotatable=180;points=[];portConstraint=eastwest;part=1;" parent="5alhqBslvUrmIMah3D22-115" vertex="1" connectable="0">
          <mxGeometry width="54" height="26" as="geometry" />
        </mxCell>
        <mxCell id="5alhqBslvUrmIMah3D22-117" value="`full_name`" style="shape=partialRectangle;top=0;left=0;right=0;bottom=0;align=left;verticalAlign=top;spacingTop=-2;fillColor=none;spacingLeft=64;spacingRight=4;overflow=hidden;rotatable=0;points=[[0,0.5],[1,0.5]];portConstraint=eastwest;dropTarget=0;" parent="5alhqBslvUrmIMah3D22-114" vertex="1">
          <mxGeometry y="52" width="160" height="26" as="geometry" />
        </mxCell>
        <mxCell id="5alhqBslvUrmIMah3D22-118" value="" style="shape=partialRectangle;top=0;left=0;bottom=0;fillColor=none;align=left;verticalAlign=middle;spacingLeft=4;spacingRight=4;overflow=hidden;rotatable=180;points=[];portConstraint=eastwest;part=1;" parent="5alhqBslvUrmIMah3D22-117" vertex="1" connectable="0">
          <mxGeometry width="54" height="26" as="geometry" />
        </mxCell>
        <mxCell id="5alhqBslvUrmIMah3D22-119" value="`description`" style="shape=partialRectangle;top=0;left=0;right=0;bottom=0;align=left;verticalAlign=top;spacingTop=-2;fillColor=none;spacingLeft=64;spacingRight=4;overflow=hidden;rotatable=0;points=[[0,0.5],[1,0.5]];portConstraint=eastwest;dropTarget=0;" parent="5alhqBslvUrmIMah3D22-114" vertex="1">
          <mxGeometry y="78" width="160" height="26" as="geometry" />
        </mxCell>
        <mxCell id="5alhqBslvUrmIMah3D22-120" value="" style="shape=partialRectangle;top=0;left=0;bottom=0;fillColor=none;align=left;verticalAlign=middle;spacingLeft=4;spacingRight=4;overflow=hidden;rotatable=180;points=[];portConstraint=eastwest;part=1;" parent="5alhqBslvUrmIMah3D22-119" vertex="1" connectable="0">
          <mxGeometry width="54" height="26" as="geometry" />
        </mxCell>
        <mxCell id="3Ao49o3wQ1Tk8LcrCFb2-1" value="??????" style="shape=partialRectangle;top=0;left=0;right=0;bottom=0;align=left;verticalAlign=top;spacingTop=-2;fillColor=none;spacingLeft=64;spacingRight=4;overflow=hidden;rotatable=0;points=[[0,0.5],[1,0.5]];portConstraint=eastwest;dropTarget=0;" parent="5alhqBslvUrmIMah3D22-114" vertex="1">
          <mxGeometry y="104" width="160" height="26" as="geometry" />
        </mxCell>
        <mxCell id="3Ao49o3wQ1Tk8LcrCFb2-2" value="" style="shape=partialRectangle;top=0;left=0;bottom=0;fillColor=none;align=left;verticalAlign=middle;spacingLeft=4;spacingRight=4;overflow=hidden;rotatable=180;points=[];portConstraint=eastwest;part=1;" parent="3Ao49o3wQ1Tk8LcrCFb2-1" vertex="1" connectable="0">
          <mxGeometry width="54" height="26" as="geometry" />
        </mxCell>
        <mxCell id="5alhqBslvUrmIMah3D22-126" style="edgeStyle=orthogonalEdgeStyle;rounded=0;orthogonalLoop=1;jettySize=auto;html=1;" parent="1" source="5alhqBslvUrmIMah3D22-105" target="5alhqBslvUrmIMah3D22-115" edge="1">
          <mxGeometry relative="1" as="geometry" />
        </mxCell>
        <mxCell id="5alhqBslvUrmIMah3D22-77" value="`battElec`?" style="shape=partialRectangle;top=0;left=0;right=0;bottom=0;align=left;verticalAlign=top;spacingTop=-2;fillColor=none;spacingLeft=64;spacingRight=4;overflow=hidden;rotatable=0;points=[[0,0.5],[1,0.5]];portConstraint=eastwest;dropTarget=0;" parent="1" vertex="1">
          <mxGeometry x="15" y="267" width="210" height="26" as="geometry" />
        </mxCell>
        <mxCell id="5alhqBslvUrmIMah3D22-78" value="" style="shape=partialRectangle;top=0;left=0;bottom=0;fillColor=none;align=left;verticalAlign=middle;spacingLeft=4;spacingRight=4;overflow=hidden;rotatable=180;points=[];portConstraint=eastwest;part=1;" parent="5alhqBslvUrmIMah3D22-77" vertex="1" connectable="0">
          <mxGeometry width="54" height="26" as="geometry" />
        </mxCell>
        <mxCell id="5alhqBslvUrmIMah3D22-95" value="`hFuelCell`?" style="shape=partialRectangle;top=0;left=0;right=0;bottom=0;align=left;verticalAlign=top;spacingTop=-2;fillColor=none;spacingLeft=64;spacingRight=4;overflow=hidden;rotatable=0;points=[[0,0.5],[1,0.5]];portConstraint=eastwest;dropTarget=0;" parent="1" vertex="1">
          <mxGeometry x="15" y="320" width="210" height="26" as="geometry" />
        </mxCell>
        <mxCell id="5alhqBslvUrmIMah3D22-96" value="" style="shape=partialRectangle;top=0;left=0;bottom=0;fillColor=none;align=left;verticalAlign=middle;spacingLeft=4;spacingRight=4;overflow=hidden;rotatable=180;points=[];portConstraint=eastwest;part=1;" parent="5alhqBslvUrmIMah3D22-95" vertex="1" connectable="0">
          <mxGeometry width="54" height="26" as="geometry" />
        </mxCell>
        <mxCell id="5alhqBslvUrmIMah3D22-97" value="`hCombustion`?" style="shape=partialRectangle;top=0;left=0;right=0;bottom=0;align=left;verticalAlign=top;spacingTop=-2;fillColor=none;spacingLeft=64;spacingRight=4;overflow=hidden;rotatable=0;points=[[0,0.5],[1,0.5]];portConstraint=eastwest;dropTarget=0;" parent="1" vertex="1">
          <mxGeometry x="15" y="294" width="210" height="26" as="geometry" />
        </mxCell>
        <mxCell id="5alhqBslvUrmIMah3D22-98" value="" style="shape=partialRectangle;top=0;left=0;bottom=0;fillColor=none;align=left;verticalAlign=middle;spacingLeft=4;spacingRight=4;overflow=hidden;rotatable=180;points=[];portConstraint=eastwest;part=1;" parent="5alhqBslvUrmIMah3D22-97" vertex="1" connectable="0">
          <mxGeometry width="54" height="26" as="geometry" />
        </mxCell>
        <mxCell id="5alhqBslvUrmIMah3D22-99" value="`natGas`?" style="shape=partialRectangle;top=0;left=0;right=0;bottom=0;align=left;verticalAlign=top;spacingTop=-2;fillColor=none;spacingLeft=64;spacingRight=4;overflow=hidden;rotatable=0;points=[[0,0.5],[1,0.5]];portConstraint=eastwest;dropTarget=0;" parent="1" vertex="1">
          <mxGeometry x="15" y="240" width="210" height="26" as="geometry" />
        </mxCell>
        <mxCell id="5alhqBslvUrmIMah3D22-100" value="" style="shape=partialRectangle;top=0;left=0;bottom=0;fillColor=none;align=left;verticalAlign=middle;spacingLeft=4;spacingRight=4;overflow=hidden;rotatable=180;points=[];portConstraint=eastwest;part=1;" parent="5alhqBslvUrmIMah3D22-99" vertex="1" connectable="0">
          <mxGeometry width="54" height="26" as="geometry" />
        </mxCell>
      </root>
    </mxGraphModel>
  </diagram>
  <diagram id="05SEjmWIaUQESjHfeety" name="Page-2">
    <mxGraphModel dx="1422" dy="705" grid="1" gridSize="10" guides="1" tooltips="1" connect="1" arrows="1" fold="1" page="1" pageScale="1" pageWidth="850" pageHeight="1100" math="0" shadow="0">
      <root>
        <mxCell id="0" />
        <mxCell id="1" parent="0" />
        <mxCell id="kN41-lVZskBi1FOQWb48-148" style="edgeStyle=none;rounded=0;orthogonalLoop=1;jettySize=auto;html=1;dashed=1;endArrow=oval;endFill=0;" parent="1" source="kN41-lVZskBi1FOQWb48-144" target="kN41-lVZskBi1FOQWb48-139" edge="1">
          <mxGeometry relative="1" as="geometry" />
        </mxCell>
        <mxCell id="kN41-lVZskBi1FOQWb48-1" value="`handles`" style="swimlane;fontStyle=0;childLayout=stackLayout;horizontal=1;startSize=26;fillColor=default;horizontalStack=0;resizeParent=1;resizeLast=0;collapsible=1;marginBottom=0;swimlaneFillColor=default;align=center;" parent="1" vertex="1">
          <mxGeometry x="630" y="40" width="160" height="156" as="geometry" />
        </mxCell>
        <mxCell id="kN41-lVZskBi1FOQWb48-2" value="`id`" style="shape=partialRectangle;top=0;left=0;right=0;bottom=0;align=left;verticalAlign=top;spacingTop=-2;fillColor=none;spacingLeft=64;spacingRight=4;overflow=hidden;rotatable=0;points=[[0,0.5],[1,0.5]];portConstraint=eastwest;dropTarget=0;" parent="kN41-lVZskBi1FOQWb48-1" vertex="1">
          <mxGeometry y="26" width="160" height="26" as="geometry" />
        </mxCell>
        <mxCell id="kN41-lVZskBi1FOQWb48-3" value="PK" style="shape=partialRectangle;top=0;left=0;bottom=0;fillColor=none;align=left;verticalAlign=middle;spacingLeft=4;spacingRight=4;overflow=hidden;rotatable=180;points=[];portConstraint=eastwest;part=1;" parent="kN41-lVZskBi1FOQWb48-2" vertex="1" connectable="0">
          <mxGeometry width="54" height="26" as="geometry" />
        </mxCell>
        <mxCell id="kN41-lVZskBi1FOQWb48-4" value="`username`" style="shape=partialRectangle;top=0;left=0;right=0;bottom=0;align=left;verticalAlign=top;spacingTop=-2;fillColor=none;spacingLeft=64;spacingRight=4;overflow=hidden;rotatable=0;points=[[0,0.5],[1,0.5]];portConstraint=eastwest;dropTarget=0;" parent="kN41-lVZskBi1FOQWb48-1" vertex="1">
          <mxGeometry y="52" width="160" height="26" as="geometry" />
        </mxCell>
        <mxCell id="kN41-lVZskBi1FOQWb48-5" value="" style="shape=partialRectangle;top=0;left=0;bottom=0;fillColor=none;align=left;verticalAlign=middle;spacingLeft=4;spacingRight=4;overflow=hidden;rotatable=180;points=[];portConstraint=eastwest;part=1;" parent="kN41-lVZskBi1FOQWb48-4" vertex="1" connectable="0">
          <mxGeometry width="54" height="26" as="geometry" />
        </mxCell>
        <mxCell id="kN41-lVZskBi1FOQWb48-6" value="`description`" style="shape=partialRectangle;top=0;left=0;right=0;bottom=0;align=left;verticalAlign=top;spacingTop=-2;fillColor=none;spacingLeft=64;spacingRight=4;overflow=hidden;rotatable=0;points=[[0,0.5],[1,0.5]];portConstraint=eastwest;dropTarget=0;" parent="kN41-lVZskBi1FOQWb48-1" vertex="1">
          <mxGeometry y="78" width="160" height="26" as="geometry" />
        </mxCell>
        <mxCell id="kN41-lVZskBi1FOQWb48-7" value="" style="shape=partialRectangle;top=0;left=0;bottom=0;fillColor=none;align=left;verticalAlign=middle;spacingLeft=4;spacingRight=4;overflow=hidden;rotatable=180;points=[];portConstraint=eastwest;part=1;" parent="kN41-lVZskBi1FOQWb48-6" vertex="1" connectable="0">
          <mxGeometry width="54" height="26" as="geometry" />
        </mxCell>
        <mxCell id="kN41-lVZskBi1FOQWb48-8" value="`name`" style="shape=partialRectangle;top=0;left=0;right=0;bottom=0;align=left;verticalAlign=top;spacingTop=-2;fillColor=none;spacingLeft=64;spacingRight=4;overflow=hidden;rotatable=0;points=[[0,0.5],[1,0.5]];portConstraint=eastwest;dropTarget=0;" parent="kN41-lVZskBi1FOQWb48-1" vertex="1">
          <mxGeometry y="104" width="160" height="26" as="geometry" />
        </mxCell>
        <mxCell id="kN41-lVZskBi1FOQWb48-9" value="" style="shape=partialRectangle;top=0;left=0;bottom=0;fillColor=none;align=left;verticalAlign=middle;spacingLeft=4;spacingRight=4;overflow=hidden;rotatable=180;points=[];portConstraint=eastwest;part=1;" parent="kN41-lVZskBi1FOQWb48-8" vertex="1" connectable="0">
          <mxGeometry width="54" height="26" as="geometry" />
        </mxCell>
        <mxCell id="kN41-lVZskBi1FOQWb48-10" value="" style="shape=partialRectangle;top=0;left=0;right=0;bottom=0;align=left;verticalAlign=top;spacingTop=-2;fillColor=none;spacingLeft=64;spacingRight=4;overflow=hidden;rotatable=0;points=[[0,0.5],[1,0.5]];portConstraint=eastwest;dropTarget=0;" parent="kN41-lVZskBi1FOQWb48-1" vertex="1">
          <mxGeometry y="130" width="160" height="26" as="geometry" />
        </mxCell>
        <mxCell id="kN41-lVZskBi1FOQWb48-11" value="" style="shape=partialRectangle;top=0;left=0;bottom=0;fillColor=none;align=left;verticalAlign=middle;spacingLeft=4;spacingRight=4;overflow=hidden;rotatable=180;points=[];portConstraint=eastwest;part=1;" parent="kN41-lVZskBi1FOQWb48-10" vertex="1" connectable="0">
          <mxGeometry width="54" height="26" as="geometry" />
        </mxCell>
        <mxCell id="kN41-lVZskBi1FOQWb48-12" value="`tweets`" style="swimlane;fontStyle=0;childLayout=stackLayout;horizontal=1;startSize=26;fillColor=default;horizontalStack=0;resizeParent=1;resizeLast=0;collapsible=1;marginBottom=0;swimlaneFillColor=default;align=center;" parent="1" vertex="1">
          <mxGeometry x="290" y="40" width="210" height="312" as="geometry" />
        </mxCell>
        <mxCell id="kN41-lVZskBi1FOQWb48-13" value="`id`" style="shape=partialRectangle;top=0;left=0;right=0;bottom=0;align=left;verticalAlign=top;spacingTop=-2;fillColor=none;spacingLeft=64;spacingRight=4;overflow=hidden;rotatable=0;points=[[0,0.5],[1,0.5]];portConstraint=eastwest;dropTarget=0;" parent="kN41-lVZskBi1FOQWb48-12" vertex="1">
          <mxGeometry y="26" width="210" height="26" as="geometry" />
        </mxCell>
        <mxCell id="kN41-lVZskBi1FOQWb48-14" value="PK" style="shape=partialRectangle;top=0;left=0;bottom=0;fillColor=none;align=left;verticalAlign=middle;spacingLeft=4;spacingRight=4;overflow=hidden;rotatable=180;points=[];portConstraint=eastwest;part=1;" parent="kN41-lVZskBi1FOQWb48-13" vertex="1" connectable="0">
          <mxGeometry width="54" height="26" as="geometry" />
        </mxCell>
        <mxCell id="kN41-lVZskBi1FOQWb48-15" value="`author_id`" style="shape=partialRectangle;top=0;left=0;right=0;bottom=0;align=left;verticalAlign=top;spacingTop=-2;fillColor=none;spacingLeft=64;spacingRight=4;overflow=hidden;rotatable=0;points=[[0,0.5],[1,0.5]];portConstraint=eastwest;dropTarget=0;" parent="kN41-lVZskBi1FOQWb48-12" vertex="1">
          <mxGeometry y="52" width="210" height="26" as="geometry" />
        </mxCell>
        <mxCell id="kN41-lVZskBi1FOQWb48-16" value="FK" style="shape=partialRectangle;top=0;left=0;bottom=0;fillColor=none;align=left;verticalAlign=middle;spacingLeft=4;spacingRight=4;overflow=hidden;rotatable=180;points=[];portConstraint=eastwest;part=1;" parent="kN41-lVZskBi1FOQWb48-15" vertex="1" connectable="0">
          <mxGeometry width="54" height="26" as="geometry" />
        </mxCell>
        <mxCell id="kN41-lVZskBi1FOQWb48-17" value="`text`" style="shape=partialRectangle;top=0;left=0;right=0;bottom=0;align=left;verticalAlign=top;spacingTop=-2;fillColor=none;spacingLeft=64;spacingRight=4;overflow=hidden;rotatable=0;points=[[0,0.5],[1,0.5]];portConstraint=eastwest;dropTarget=0;" parent="kN41-lVZskBi1FOQWb48-12" vertex="1">
          <mxGeometry y="78" width="210" height="26" as="geometry" />
        </mxCell>
        <mxCell id="kN41-lVZskBi1FOQWb48-18" value="" style="shape=partialRectangle;top=0;left=0;bottom=0;fillColor=none;align=left;verticalAlign=middle;spacingLeft=4;spacingRight=4;overflow=hidden;rotatable=180;points=[];portConstraint=eastwest;part=1;" parent="kN41-lVZskBi1FOQWb48-17" vertex="1" connectable="0">
          <mxGeometry width="54" height="26" as="geometry" />
        </mxCell>
        <mxCell id="kN41-lVZskBi1FOQWb48-19" value="`created_at`" style="shape=partialRectangle;top=0;left=0;right=0;bottom=0;align=left;verticalAlign=top;spacingTop=-2;fillColor=none;spacingLeft=64;spacingRight=4;overflow=hidden;rotatable=0;points=[[0,0.5],[1,0.5]];portConstraint=eastwest;dropTarget=0;" parent="kN41-lVZskBi1FOQWb48-12" vertex="1">
          <mxGeometry y="104" width="210" height="26" as="geometry" />
        </mxCell>
        <mxCell id="kN41-lVZskBi1FOQWb48-20" value="" style="shape=partialRectangle;top=0;left=0;bottom=0;fillColor=none;align=left;verticalAlign=middle;spacingLeft=4;spacingRight=4;overflow=hidden;rotatable=180;points=[];portConstraint=eastwest;part=1;" parent="kN41-lVZskBi1FOQWb48-19" vertex="1" connectable="0">
          <mxGeometry width="54" height="26" as="geometry" />
        </mxCell>
        <mxCell id="kN41-lVZskBi1FOQWb48-32" value="`lang`&#xa;" style="shape=partialRectangle;top=0;left=0;right=0;bottom=0;align=left;verticalAlign=top;spacingTop=-2;fillColor=none;spacingLeft=64;spacingRight=4;overflow=hidden;rotatable=0;points=[[0,0.5],[1,0.5]];portConstraint=eastwest;dropTarget=0;" parent="kN41-lVZskBi1FOQWb48-12" vertex="1">
          <mxGeometry y="130" width="210" height="26" as="geometry" />
        </mxCell>
        <mxCell id="kN41-lVZskBi1FOQWb48-33" value="" style="shape=partialRectangle;top=0;left=0;bottom=0;fillColor=none;align=left;verticalAlign=middle;spacingLeft=4;spacingRight=4;overflow=hidden;rotatable=180;points=[];portConstraint=eastwest;part=1;" parent="kN41-lVZskBi1FOQWb48-32" vertex="1" connectable="0">
          <mxGeometry width="54" height="26" as="geometry" />
        </mxCell>
        <mxCell id="kN41-lVZskBi1FOQWb48-21" value="`conversation_id`" style="shape=partialRectangle;top=0;left=0;right=0;bottom=0;align=left;verticalAlign=top;spacingTop=-2;fillColor=none;spacingLeft=64;spacingRight=4;overflow=hidden;rotatable=0;points=[[0,0.5],[1,0.5]];portConstraint=eastwest;dropTarget=0;" parent="kN41-lVZskBi1FOQWb48-12" vertex="1">
          <mxGeometry y="156" width="210" height="26" as="geometry" />
        </mxCell>
        <mxCell id="kN41-lVZskBi1FOQWb48-22" value="" style="shape=partialRectangle;top=0;left=0;bottom=0;fillColor=none;align=left;verticalAlign=middle;spacingLeft=4;spacingRight=4;overflow=hidden;rotatable=180;points=[];portConstraint=eastwest;part=1;" parent="kN41-lVZskBi1FOQWb48-21" vertex="1" connectable="0">
          <mxGeometry width="54" height="26" as="geometry" />
        </mxCell>
        <mxCell id="kN41-lVZskBi1FOQWb48-25" value="`powertrain_set`" style="shape=partialRectangle;top=0;left=0;right=0;bottom=0;align=left;verticalAlign=top;spacingTop=-2;fillColor=none;spacingLeft=64;spacingRight=4;overflow=hidden;rotatable=0;points=[[0,0.5],[1,0.5]];portConstraint=eastwest;dropTarget=0;" parent="kN41-lVZskBi1FOQWb48-12" vertex="1">
          <mxGeometry y="182" width="210" height="26" as="geometry" />
        </mxCell>
        <mxCell id="kN41-lVZskBi1FOQWb48-26" value="" style="shape=partialRectangle;top=0;left=0;bottom=0;fillColor=none;align=left;verticalAlign=middle;spacingLeft=4;spacingRight=4;overflow=hidden;rotatable=180;points=[];portConstraint=eastwest;part=1;" parent="kN41-lVZskBi1FOQWb48-25" vertex="1" connectable="0">
          <mxGeometry width="54" height="26" as="geometry" />
        </mxCell>
        <mxCell id="kN41-lVZskBi1FOQWb48-34" value="`VADERcompound`" style="shape=partialRectangle;top=0;left=0;right=0;bottom=0;align=left;verticalAlign=top;spacingTop=-2;fillColor=none;spacingLeft=64;spacingRight=4;overflow=hidden;rotatable=0;points=[[0,0.5],[1,0.5]];portConstraint=eastwest;dropTarget=0;" parent="kN41-lVZskBi1FOQWb48-12" vertex="1">
          <mxGeometry y="208" width="210" height="26" as="geometry" />
        </mxCell>
        <mxCell id="kN41-lVZskBi1FOQWb48-35" value="" style="shape=partialRectangle;top=0;left=0;bottom=0;fillColor=none;align=left;verticalAlign=middle;spacingLeft=4;spacingRight=4;overflow=hidden;rotatable=180;points=[];portConstraint=eastwest;part=1;" parent="kN41-lVZskBi1FOQWb48-34" vertex="1" connectable="0">
          <mxGeometry width="54" height="26" as="geometry" />
        </mxCell>
        <mxCell id="kN41-lVZskBi1FOQWb48-38" value="`VADERneg`" style="shape=partialRectangle;top=0;left=0;right=0;bottom=0;align=left;verticalAlign=top;spacingTop=-2;fillColor=none;spacingLeft=64;spacingRight=4;overflow=hidden;rotatable=0;points=[[0,0.5],[1,0.5]];portConstraint=eastwest;dropTarget=0;" parent="kN41-lVZskBi1FOQWb48-12" vertex="1">
          <mxGeometry y="234" width="210" height="26" as="geometry" />
        </mxCell>
        <mxCell id="kN41-lVZskBi1FOQWb48-39" value="" style="shape=partialRectangle;top=0;left=0;bottom=0;fillColor=none;align=left;verticalAlign=middle;spacingLeft=4;spacingRight=4;overflow=hidden;rotatable=180;points=[];portConstraint=eastwest;part=1;" parent="kN41-lVZskBi1FOQWb48-38" vertex="1" connectable="0">
          <mxGeometry width="54" height="26" as="geometry" />
        </mxCell>
        <mxCell id="kN41-lVZskBi1FOQWb48-40" value="`VADERneu`" style="shape=partialRectangle;top=0;left=0;right=0;bottom=0;align=left;verticalAlign=top;spacingTop=-2;fillColor=none;spacingLeft=64;spacingRight=4;overflow=hidden;rotatable=0;points=[[0,0.5],[1,0.5]];portConstraint=eastwest;dropTarget=0;" parent="kN41-lVZskBi1FOQWb48-12" vertex="1">
          <mxGeometry y="260" width="210" height="26" as="geometry" />
        </mxCell>
        <mxCell id="kN41-lVZskBi1FOQWb48-41" value="" style="shape=partialRectangle;top=0;left=0;bottom=0;fillColor=none;align=left;verticalAlign=middle;spacingLeft=4;spacingRight=4;overflow=hidden;rotatable=180;points=[];portConstraint=eastwest;part=1;" parent="kN41-lVZskBi1FOQWb48-40" vertex="1" connectable="0">
          <mxGeometry width="54" height="26" as="geometry" />
        </mxCell>
        <mxCell id="kN41-lVZskBi1FOQWb48-42" value="`VADERpos`" style="shape=partialRectangle;top=0;left=0;right=0;bottom=0;align=left;verticalAlign=top;spacingTop=-2;fillColor=none;spacingLeft=64;spacingRight=4;overflow=hidden;rotatable=0;points=[[0,0.5],[1,0.5]];portConstraint=eastwest;dropTarget=0;" parent="kN41-lVZskBi1FOQWb48-12" vertex="1">
          <mxGeometry y="286" width="210" height="26" as="geometry" />
        </mxCell>
        <mxCell id="kN41-lVZskBi1FOQWb48-43" value="" style="shape=partialRectangle;top=0;left=0;bottom=0;fillColor=none;align=left;verticalAlign=middle;spacingLeft=4;spacingRight=4;overflow=hidden;rotatable=180;points=[];portConstraint=eastwest;part=1;" parent="kN41-lVZskBi1FOQWb48-42" vertex="1" connectable="0">
          <mxGeometry width="54" height="26" as="geometry" />
        </mxCell>
        <mxCell id="kN41-lVZskBi1FOQWb48-31" style="edgeStyle=orthogonalEdgeStyle;rounded=0;orthogonalLoop=1;jettySize=auto;html=1;" parent="1" source="kN41-lVZskBi1FOQWb48-15" target="kN41-lVZskBi1FOQWb48-2" edge="1">
          <mxGeometry relative="1" as="geometry" />
        </mxCell>
        <mxCell id="kN41-lVZskBi1FOQWb48-69" value="`retweets`" style="swimlane;fontStyle=0;childLayout=stackLayout;horizontal=1;startSize=26;fillColor=default;horizontalStack=0;resizeParent=1;resizeLast=0;collapsible=1;marginBottom=0;swimlaneFillColor=default;align=center;" parent="1" vertex="1">
          <mxGeometry x="880" y="20" width="210" height="338" as="geometry" />
        </mxCell>
        <mxCell id="kN41-lVZskBi1FOQWb48-70" value="`id`" style="shape=partialRectangle;top=0;left=0;right=0;bottom=0;align=left;verticalAlign=top;spacingTop=-2;fillColor=none;spacingLeft=64;spacingRight=4;overflow=hidden;rotatable=0;points=[[0,0.5],[1,0.5]];portConstraint=eastwest;dropTarget=0;" parent="kN41-lVZskBi1FOQWb48-69" vertex="1">
          <mxGeometry y="26" width="210" height="26" as="geometry" />
        </mxCell>
        <mxCell id="kN41-lVZskBi1FOQWb48-71" value="PK" style="shape=partialRectangle;top=0;left=0;bottom=0;fillColor=none;align=left;verticalAlign=middle;spacingLeft=4;spacingRight=4;overflow=hidden;rotatable=180;points=[];portConstraint=eastwest;part=1;" parent="kN41-lVZskBi1FOQWb48-70" vertex="1" connectable="0">
          <mxGeometry width="54" height="26" as="geometry" />
        </mxCell>
        <mxCell id="kN41-lVZskBi1FOQWb48-72" value="`author_id`" style="shape=partialRectangle;top=0;left=0;right=0;bottom=0;align=left;verticalAlign=top;spacingTop=-2;fillColor=none;spacingLeft=64;spacingRight=4;overflow=hidden;rotatable=0;points=[[0,0.5],[1,0.5]];portConstraint=eastwest;dropTarget=0;" parent="kN41-lVZskBi1FOQWb48-69" vertex="1">
          <mxGeometry y="52" width="210" height="26" as="geometry" />
        </mxCell>
        <mxCell id="kN41-lVZskBi1FOQWb48-73" value="FK" style="shape=partialRectangle;top=0;left=0;bottom=0;fillColor=none;align=left;verticalAlign=middle;spacingLeft=4;spacingRight=4;overflow=hidden;rotatable=180;points=[];portConstraint=eastwest;part=1;" parent="kN41-lVZskBi1FOQWb48-72" vertex="1" connectable="0">
          <mxGeometry width="54" height="26" as="geometry" />
        </mxCell>
        <mxCell id="kN41-lVZskBi1FOQWb48-74" value="`text`" style="shape=partialRectangle;top=0;left=0;right=0;bottom=0;align=left;verticalAlign=top;spacingTop=-2;fillColor=none;spacingLeft=64;spacingRight=4;overflow=hidden;rotatable=0;points=[[0,0.5],[1,0.5]];portConstraint=eastwest;dropTarget=0;" parent="kN41-lVZskBi1FOQWb48-69" vertex="1">
          <mxGeometry y="78" width="210" height="26" as="geometry" />
        </mxCell>
        <mxCell id="kN41-lVZskBi1FOQWb48-75" value="" style="shape=partialRectangle;top=0;left=0;bottom=0;fillColor=none;align=left;verticalAlign=middle;spacingLeft=4;spacingRight=4;overflow=hidden;rotatable=180;points=[];portConstraint=eastwest;part=1;" parent="kN41-lVZskBi1FOQWb48-74" vertex="1" connectable="0">
          <mxGeometry width="54" height="26" as="geometry" />
        </mxCell>
        <mxCell id="kN41-lVZskBi1FOQWb48-76" value="`created_at`" style="shape=partialRectangle;top=0;left=0;right=0;bottom=0;align=left;verticalAlign=top;spacingTop=-2;fillColor=none;spacingLeft=64;spacingRight=4;overflow=hidden;rotatable=0;points=[[0,0.5],[1,0.5]];portConstraint=eastwest;dropTarget=0;" parent="kN41-lVZskBi1FOQWb48-69" vertex="1">
          <mxGeometry y="104" width="210" height="26" as="geometry" />
        </mxCell>
        <mxCell id="kN41-lVZskBi1FOQWb48-77" value="" style="shape=partialRectangle;top=0;left=0;bottom=0;fillColor=none;align=left;verticalAlign=middle;spacingLeft=4;spacingRight=4;overflow=hidden;rotatable=180;points=[];portConstraint=eastwest;part=1;" parent="kN41-lVZskBi1FOQWb48-76" vertex="1" connectable="0">
          <mxGeometry width="54" height="26" as="geometry" />
        </mxCell>
        <mxCell id="kN41-lVZskBi1FOQWb48-78" value="`lang`&#xa;" style="shape=partialRectangle;top=0;left=0;right=0;bottom=0;align=left;verticalAlign=top;spacingTop=-2;fillColor=none;spacingLeft=64;spacingRight=4;overflow=hidden;rotatable=0;points=[[0,0.5],[1,0.5]];portConstraint=eastwest;dropTarget=0;" parent="kN41-lVZskBi1FOQWb48-69" vertex="1">
          <mxGeometry y="130" width="210" height="26" as="geometry" />
        </mxCell>
        <mxCell id="kN41-lVZskBi1FOQWb48-79" value="" style="shape=partialRectangle;top=0;left=0;bottom=0;fillColor=none;align=left;verticalAlign=middle;spacingLeft=4;spacingRight=4;overflow=hidden;rotatable=180;points=[];portConstraint=eastwest;part=1;" parent="kN41-lVZskBi1FOQWb48-78" vertex="1" connectable="0">
          <mxGeometry width="54" height="26" as="geometry" />
        </mxCell>
        <mxCell id="kN41-lVZskBi1FOQWb48-80" value="`conversation_id`" style="shape=partialRectangle;top=0;left=0;right=0;bottom=0;align=left;verticalAlign=top;spacingTop=-2;fillColor=none;spacingLeft=64;spacingRight=4;overflow=hidden;rotatable=0;points=[[0,0.5],[1,0.5]];portConstraint=eastwest;dropTarget=0;" parent="kN41-lVZskBi1FOQWb48-69" vertex="1">
          <mxGeometry y="156" width="210" height="26" as="geometry" />
        </mxCell>
        <mxCell id="kN41-lVZskBi1FOQWb48-81" value="" style="shape=partialRectangle;top=0;left=0;bottom=0;fillColor=none;align=left;verticalAlign=middle;spacingLeft=4;spacingRight=4;overflow=hidden;rotatable=180;points=[];portConstraint=eastwest;part=1;" parent="kN41-lVZskBi1FOQWb48-80" vertex="1" connectable="0">
          <mxGeometry width="54" height="26" as="geometry" />
        </mxCell>
        <mxCell id="kN41-lVZskBi1FOQWb48-82" value="`powertrain_set`" style="shape=partialRectangle;top=0;left=0;right=0;bottom=0;align=left;verticalAlign=top;spacingTop=-2;fillColor=none;spacingLeft=64;spacingRight=4;overflow=hidden;rotatable=0;points=[[0,0.5],[1,0.5]];portConstraint=eastwest;dropTarget=0;" parent="kN41-lVZskBi1FOQWb48-69" vertex="1">
          <mxGeometry y="182" width="210" height="26" as="geometry" />
        </mxCell>
        <mxCell id="kN41-lVZskBi1FOQWb48-83" value="" style="shape=partialRectangle;top=0;left=0;bottom=0;fillColor=none;align=left;verticalAlign=middle;spacingLeft=4;spacingRight=4;overflow=hidden;rotatable=180;points=[];portConstraint=eastwest;part=1;" parent="kN41-lVZskBi1FOQWb48-82" vertex="1" connectable="0">
          <mxGeometry width="54" height="26" as="geometry" />
        </mxCell>
        <mxCell id="kN41-lVZskBi1FOQWb48-84" value="`in_reply_to_user_id`" style="shape=partialRectangle;top=0;left=0;right=0;bottom=0;align=left;verticalAlign=top;spacingTop=-2;fillColor=none;spacingLeft=64;spacingRight=4;overflow=hidden;rotatable=0;points=[[0,0.5],[1,0.5]];portConstraint=eastwest;dropTarget=0;" parent="kN41-lVZskBi1FOQWb48-69" vertex="1">
          <mxGeometry y="208" width="210" height="26" as="geometry" />
        </mxCell>
        <mxCell id="kN41-lVZskBi1FOQWb48-85" value="" style="shape=partialRectangle;top=0;left=0;bottom=0;fillColor=none;align=left;verticalAlign=middle;spacingLeft=4;spacingRight=4;overflow=hidden;rotatable=180;points=[];portConstraint=eastwest;part=1;" parent="kN41-lVZskBi1FOQWb48-84" vertex="1" connectable="0">
          <mxGeometry width="54" height="26" as="geometry" />
        </mxCell>
        <mxCell id="kN41-lVZskBi1FOQWb48-86" value="`VADERcompound`" style="shape=partialRectangle;top=0;left=0;right=0;bottom=0;align=left;verticalAlign=top;spacingTop=-2;fillColor=none;spacingLeft=64;spacingRight=4;overflow=hidden;rotatable=0;points=[[0,0.5],[1,0.5]];portConstraint=eastwest;dropTarget=0;" parent="kN41-lVZskBi1FOQWb48-69" vertex="1">
          <mxGeometry y="234" width="210" height="26" as="geometry" />
        </mxCell>
        <mxCell id="kN41-lVZskBi1FOQWb48-87" value="" style="shape=partialRectangle;top=0;left=0;bottom=0;fillColor=none;align=left;verticalAlign=middle;spacingLeft=4;spacingRight=4;overflow=hidden;rotatable=180;points=[];portConstraint=eastwest;part=1;" parent="kN41-lVZskBi1FOQWb48-86" vertex="1" connectable="0">
          <mxGeometry width="54" height="26" as="geometry" />
        </mxCell>
        <mxCell id="kN41-lVZskBi1FOQWb48-88" value="`VADERneg`" style="shape=partialRectangle;top=0;left=0;right=0;bottom=0;align=left;verticalAlign=top;spacingTop=-2;fillColor=none;spacingLeft=64;spacingRight=4;overflow=hidden;rotatable=0;points=[[0,0.5],[1,0.5]];portConstraint=eastwest;dropTarget=0;" parent="kN41-lVZskBi1FOQWb48-69" vertex="1">
          <mxGeometry y="260" width="210" height="26" as="geometry" />
        </mxCell>
        <mxCell id="kN41-lVZskBi1FOQWb48-89" value="" style="shape=partialRectangle;top=0;left=0;bottom=0;fillColor=none;align=left;verticalAlign=middle;spacingLeft=4;spacingRight=4;overflow=hidden;rotatable=180;points=[];portConstraint=eastwest;part=1;" parent="kN41-lVZskBi1FOQWb48-88" vertex="1" connectable="0">
          <mxGeometry width="54" height="26" as="geometry" />
        </mxCell>
        <mxCell id="kN41-lVZskBi1FOQWb48-90" value="`VADERneu`" style="shape=partialRectangle;top=0;left=0;right=0;bottom=0;align=left;verticalAlign=top;spacingTop=-2;fillColor=none;spacingLeft=64;spacingRight=4;overflow=hidden;rotatable=0;points=[[0,0.5],[1,0.5]];portConstraint=eastwest;dropTarget=0;" parent="kN41-lVZskBi1FOQWb48-69" vertex="1">
          <mxGeometry y="286" width="210" height="26" as="geometry" />
        </mxCell>
        <mxCell id="kN41-lVZskBi1FOQWb48-91" value="" style="shape=partialRectangle;top=0;left=0;bottom=0;fillColor=none;align=left;verticalAlign=middle;spacingLeft=4;spacingRight=4;overflow=hidden;rotatable=180;points=[];portConstraint=eastwest;part=1;" parent="kN41-lVZskBi1FOQWb48-90" vertex="1" connectable="0">
          <mxGeometry width="54" height="26" as="geometry" />
        </mxCell>
        <mxCell id="kN41-lVZskBi1FOQWb48-92" value="`VADERpos`" style="shape=partialRectangle;top=0;left=0;right=0;bottom=0;align=left;verticalAlign=top;spacingTop=-2;fillColor=none;spacingLeft=64;spacingRight=4;overflow=hidden;rotatable=0;points=[[0,0.5],[1,0.5]];portConstraint=eastwest;dropTarget=0;" parent="kN41-lVZskBi1FOQWb48-69" vertex="1">
          <mxGeometry y="312" width="210" height="26" as="geometry" />
        </mxCell>
        <mxCell id="kN41-lVZskBi1FOQWb48-93" value="" style="shape=partialRectangle;top=0;left=0;bottom=0;fillColor=none;align=left;verticalAlign=middle;spacingLeft=4;spacingRight=4;overflow=hidden;rotatable=180;points=[];portConstraint=eastwest;part=1;" parent="kN41-lVZskBi1FOQWb48-92" vertex="1" connectable="0">
          <mxGeometry width="54" height="26" as="geometry" />
        </mxCell>
        <mxCell id="kN41-lVZskBi1FOQWb48-94" value="`tempVADER`" style="swimlane;fontStyle=0;childLayout=stackLayout;horizontal=1;startSize=26;fillColor=default;horizontalStack=0;resizeParent=1;resizeLast=0;collapsible=1;marginBottom=0;swimlaneFillColor=default;align=center;" parent="1" vertex="1">
          <mxGeometry x="620" y="210" width="160" height="156" as="geometry" />
        </mxCell>
        <mxCell id="kN41-lVZskBi1FOQWb48-95" value="`id`" style="shape=partialRectangle;top=0;left=0;right=0;bottom=0;align=left;verticalAlign=top;spacingTop=-2;fillColor=none;spacingLeft=64;spacingRight=4;overflow=hidden;rotatable=0;points=[[0,0.5],[1,0.5]];portConstraint=eastwest;dropTarget=0;" parent="kN41-lVZskBi1FOQWb48-94" vertex="1">
          <mxGeometry y="26" width="160" height="26" as="geometry" />
        </mxCell>
        <mxCell id="kN41-lVZskBi1FOQWb48-96" value="PK" style="shape=partialRectangle;top=0;left=0;bottom=0;fillColor=none;align=left;verticalAlign=middle;spacingLeft=4;spacingRight=4;overflow=hidden;rotatable=180;points=[];portConstraint=eastwest;part=1;" parent="kN41-lVZskBi1FOQWb48-95" vertex="1" connectable="0">
          <mxGeometry width="54" height="26" as="geometry" />
        </mxCell>
        <mxCell id="kN41-lVZskBi1FOQWb48-105" value="`compound`" style="shape=partialRectangle;top=0;left=0;right=0;bottom=0;align=left;verticalAlign=top;spacingTop=-2;fillColor=none;spacingLeft=64;spacingRight=4;overflow=hidden;rotatable=0;points=[[0,0.5],[1,0.5]];portConstraint=eastwest;dropTarget=0;" parent="kN41-lVZskBi1FOQWb48-94" vertex="1">
          <mxGeometry y="52" width="160" height="26" as="geometry" />
        </mxCell>
        <mxCell id="kN41-lVZskBi1FOQWb48-106" value="" style="shape=partialRectangle;top=0;left=0;bottom=0;fillColor=none;align=left;verticalAlign=middle;spacingLeft=4;spacingRight=4;overflow=hidden;rotatable=180;points=[];portConstraint=eastwest;part=1;" parent="kN41-lVZskBi1FOQWb48-105" vertex="1" connectable="0">
          <mxGeometry width="54" height="26" as="geometry" />
        </mxCell>
        <mxCell id="kN41-lVZskBi1FOQWb48-97" value="`nega`" style="shape=partialRectangle;top=0;left=0;right=0;bottom=0;align=left;verticalAlign=top;spacingTop=-2;fillColor=none;spacingLeft=64;spacingRight=4;overflow=hidden;rotatable=0;points=[[0,0.5],[1,0.5]];portConstraint=eastwest;dropTarget=0;" parent="kN41-lVZskBi1FOQWb48-94" vertex="1">
          <mxGeometry y="78" width="160" height="26" as="geometry" />
        </mxCell>
        <mxCell id="kN41-lVZskBi1FOQWb48-98" value="" style="shape=partialRectangle;top=0;left=0;bottom=0;fillColor=none;align=left;verticalAlign=middle;spacingLeft=4;spacingRight=4;overflow=hidden;rotatable=180;points=[];portConstraint=eastwest;part=1;" parent="kN41-lVZskBi1FOQWb48-97" vertex="1" connectable="0">
          <mxGeometry width="54" height="26" as="geometry" />
        </mxCell>
        <mxCell id="kN41-lVZskBi1FOQWb48-99" value="`neu`" style="shape=partialRectangle;top=0;left=0;right=0;bottom=0;align=left;verticalAlign=top;spacingTop=-2;fillColor=none;spacingLeft=64;spacingRight=4;overflow=hidden;rotatable=0;points=[[0,0.5],[1,0.5]];portConstraint=eastwest;dropTarget=0;" parent="kN41-lVZskBi1FOQWb48-94" vertex="1">
          <mxGeometry y="104" width="160" height="26" as="geometry" />
        </mxCell>
        <mxCell id="kN41-lVZskBi1FOQWb48-100" value="" style="shape=partialRectangle;top=0;left=0;bottom=0;fillColor=none;align=left;verticalAlign=middle;spacingLeft=4;spacingRight=4;overflow=hidden;rotatable=180;points=[];portConstraint=eastwest;part=1;" parent="kN41-lVZskBi1FOQWb48-99" vertex="1" connectable="0">
          <mxGeometry width="54" height="26" as="geometry" />
        </mxCell>
        <mxCell id="kN41-lVZskBi1FOQWb48-101" value="`pos`" style="shape=partialRectangle;top=0;left=0;right=0;bottom=0;align=left;verticalAlign=top;spacingTop=-2;fillColor=none;spacingLeft=64;spacingRight=4;overflow=hidden;rotatable=0;points=[[0,0.5],[1,0.5]];portConstraint=eastwest;dropTarget=0;" parent="kN41-lVZskBi1FOQWb48-94" vertex="1">
          <mxGeometry y="130" width="160" height="26" as="geometry" />
        </mxCell>
        <mxCell id="kN41-lVZskBi1FOQWb48-102" value="" style="shape=partialRectangle;top=0;left=0;bottom=0;fillColor=none;align=left;verticalAlign=middle;spacingLeft=4;spacingRight=4;overflow=hidden;rotatable=180;points=[];portConstraint=eastwest;part=1;" parent="kN41-lVZskBi1FOQWb48-101" vertex="1" connectable="0">
          <mxGeometry width="54" height="26" as="geometry" />
        </mxCell>
        <mxCell id="kN41-lVZskBi1FOQWb48-107" style="edgeStyle=orthogonalEdgeStyle;rounded=0;orthogonalLoop=1;jettySize=auto;html=1;" parent="1" source="kN41-lVZskBi1FOQWb48-95" target="kN41-lVZskBi1FOQWb48-13" edge="1">
          <mxGeometry relative="1" as="geometry" />
        </mxCell>
        <mxCell id="kN41-lVZskBi1FOQWb48-108" style="edgeStyle=orthogonalEdgeStyle;rounded=0;orthogonalLoop=1;jettySize=auto;html=1;" parent="1" source="kN41-lVZskBi1FOQWb48-97" target="kN41-lVZskBi1FOQWb48-38" edge="1">
          <mxGeometry relative="1" as="geometry" />
        </mxCell>
        <mxCell id="kN41-lVZskBi1FOQWb48-109" style="edgeStyle=orthogonalEdgeStyle;rounded=0;orthogonalLoop=1;jettySize=auto;html=1;" parent="1" source="kN41-lVZskBi1FOQWb48-99" target="kN41-lVZskBi1FOQWb48-40" edge="1">
          <mxGeometry relative="1" as="geometry" />
        </mxCell>
        <mxCell id="kN41-lVZskBi1FOQWb48-110" style="edgeStyle=orthogonalEdgeStyle;rounded=0;orthogonalLoop=1;jettySize=auto;html=1;" parent="1" source="kN41-lVZskBi1FOQWb48-101" target="kN41-lVZskBi1FOQWb48-42" edge="1">
          <mxGeometry relative="1" as="geometry" />
        </mxCell>
        <mxCell id="kN41-lVZskBi1FOQWb48-111" style="edgeStyle=orthogonalEdgeStyle;rounded=0;orthogonalLoop=1;jettySize=auto;html=1;" parent="1" source="kN41-lVZskBi1FOQWb48-105" target="kN41-lVZskBi1FOQWb48-34" edge="1">
          <mxGeometry relative="1" as="geometry" />
        </mxCell>
        <mxCell id="kN41-lVZskBi1FOQWb48-112" style="edgeStyle=orthogonalEdgeStyle;rounded=0;orthogonalLoop=1;jettySize=auto;html=1;" parent="1" source="kN41-lVZskBi1FOQWb48-95" target="kN41-lVZskBi1FOQWb48-70" edge="1">
          <mxGeometry relative="1" as="geometry" />
        </mxCell>
        <mxCell id="kN41-lVZskBi1FOQWb48-113" style="edgeStyle=orthogonalEdgeStyle;rounded=0;orthogonalLoop=1;jettySize=auto;html=1;" parent="1" source="kN41-lVZskBi1FOQWb48-105" target="kN41-lVZskBi1FOQWb48-86" edge="1">
          <mxGeometry relative="1" as="geometry" />
        </mxCell>
        <mxCell id="kN41-lVZskBi1FOQWb48-114" style="edgeStyle=orthogonalEdgeStyle;rounded=0;orthogonalLoop=1;jettySize=auto;html=1;" parent="1" source="kN41-lVZskBi1FOQWb48-97" target="kN41-lVZskBi1FOQWb48-88" edge="1">
          <mxGeometry relative="1" as="geometry" />
        </mxCell>
        <mxCell id="kN41-lVZskBi1FOQWb48-115" style="edgeStyle=orthogonalEdgeStyle;rounded=0;orthogonalLoop=1;jettySize=auto;html=1;" parent="1" source="kN41-lVZskBi1FOQWb48-99" target="kN41-lVZskBi1FOQWb48-90" edge="1">
          <mxGeometry relative="1" as="geometry" />
        </mxCell>
        <mxCell id="kN41-lVZskBi1FOQWb48-116" style="edgeStyle=orthogonalEdgeStyle;rounded=0;orthogonalLoop=1;jettySize=auto;html=1;" parent="1" source="kN41-lVZskBi1FOQWb48-101" target="kN41-lVZskBi1FOQWb48-92" edge="1">
          <mxGeometry relative="1" as="geometry" />
        </mxCell>
        <mxCell id="kN41-lVZskBi1FOQWb48-119" style="edgeStyle=orthogonalEdgeStyle;rounded=0;orthogonalLoop=1;jettySize=auto;html=1;" parent="1" source="kN41-lVZskBi1FOQWb48-72" target="kN41-lVZskBi1FOQWb48-2" edge="1">
          <mxGeometry relative="1" as="geometry" />
        </mxCell>
        <mxCell id="kN41-lVZskBi1FOQWb48-122" value="`hce`" style="swimlane;fontStyle=0;childLayout=stackLayout;horizontal=1;startSize=26;fillColor=default;horizontalStack=0;resizeParent=1;resizeLast=0;collapsible=1;marginBottom=0;swimlaneFillColor=default;align=center;" parent="1" vertex="1">
          <mxGeometry x="315" y="366" width="160" height="52" as="geometry" />
        </mxCell>
        <mxCell id="kN41-lVZskBi1FOQWb48-123" value="`word`" style="shape=partialRectangle;top=0;left=0;right=0;bottom=0;align=left;verticalAlign=top;spacingTop=-2;fillColor=none;spacingLeft=64;spacingRight=4;overflow=hidden;rotatable=0;points=[[0,0.5],[1,0.5]];portConstraint=eastwest;dropTarget=0;" parent="kN41-lVZskBi1FOQWb48-122" vertex="1">
          <mxGeometry y="26" width="160" height="26" as="geometry" />
        </mxCell>
        <mxCell id="kN41-lVZskBi1FOQWb48-124" value="PK" style="shape=partialRectangle;top=0;left=0;bottom=0;fillColor=none;align=left;verticalAlign=middle;spacingLeft=4;spacingRight=4;overflow=hidden;rotatable=180;points=[];portConstraint=eastwest;part=1;" parent="kN41-lVZskBi1FOQWb48-123" vertex="1" connectable="0">
          <mxGeometry width="54" height="26" as="geometry" />
        </mxCell>
        <mxCell id="kN41-lVZskBi1FOQWb48-133" value="`battElec`" style="swimlane;fontStyle=0;childLayout=stackLayout;horizontal=1;startSize=26;fillColor=default;horizontalStack=0;resizeParent=1;resizeLast=0;collapsible=1;marginBottom=0;swimlaneFillColor=default;align=center;" parent="1" vertex="1">
          <mxGeometry x="630" y="440" width="160" height="52" as="geometry" />
        </mxCell>
        <mxCell id="kN41-lVZskBi1FOQWb48-134" value="`word`" style="shape=partialRectangle;top=0;left=0;right=0;bottom=0;align=left;verticalAlign=top;spacingTop=-2;fillColor=none;spacingLeft=64;spacingRight=4;overflow=hidden;rotatable=0;points=[[0,0.5],[1,0.5]];portConstraint=eastwest;dropTarget=0;" parent="kN41-lVZskBi1FOQWb48-133" vertex="1">
          <mxGeometry y="26" width="160" height="26" as="geometry" />
        </mxCell>
        <mxCell id="kN41-lVZskBi1FOQWb48-135" value="PK" style="shape=partialRectangle;top=0;left=0;bottom=0;fillColor=none;align=left;verticalAlign=middle;spacingLeft=4;spacingRight=4;overflow=hidden;rotatable=180;points=[];portConstraint=eastwest;part=1;" parent="kN41-lVZskBi1FOQWb48-134" vertex="1" connectable="0">
          <mxGeometry width="54" height="26" as="geometry" />
        </mxCell>
        <mxCell id="kN41-lVZskBi1FOQWb48-136" value="`hFuelCell`" style="swimlane;fontStyle=0;childLayout=stackLayout;horizontal=1;startSize=26;fillColor=default;horizontalStack=0;resizeParent=1;resizeLast=0;collapsible=1;marginBottom=0;swimlaneFillColor=default;align=center;" parent="1" vertex="1">
          <mxGeometry x="630" y="374" width="160" height="52" as="geometry" />
        </mxCell>
        <mxCell id="kN41-lVZskBi1FOQWb48-137" value="`word`" style="shape=partialRectangle;top=0;left=0;right=0;bottom=0;align=left;verticalAlign=top;spacingTop=-2;fillColor=none;spacingLeft=64;spacingRight=4;overflow=hidden;rotatable=0;points=[[0,0.5],[1,0.5]];portConstraint=eastwest;dropTarget=0;" parent="kN41-lVZskBi1FOQWb48-136" vertex="1">
          <mxGeometry y="26" width="160" height="26" as="geometry" />
        </mxCell>
        <mxCell id="kN41-lVZskBi1FOQWb48-138" value="PK" style="shape=partialRectangle;top=0;left=0;bottom=0;fillColor=none;align=left;verticalAlign=middle;spacingLeft=4;spacingRight=4;overflow=hidden;rotatable=180;points=[];portConstraint=eastwest;part=1;" parent="kN41-lVZskBi1FOQWb48-137" vertex="1" connectable="0">
          <mxGeometry width="54" height="26" as="geometry" />
        </mxCell>
        <mxCell id="kN41-lVZskBi1FOQWb48-139" value="`natGas`" style="swimlane;fontStyle=0;childLayout=stackLayout;horizontal=1;startSize=26;fillColor=default;horizontalStack=0;resizeParent=1;resizeLast=0;collapsible=1;marginBottom=0;swimlaneFillColor=default;align=center;" parent="1" vertex="1">
          <mxGeometry x="315" y="440" width="160" height="52" as="geometry" />
        </mxCell>
        <mxCell id="kN41-lVZskBi1FOQWb48-140" value="`word`" style="shape=partialRectangle;top=0;left=0;right=0;bottom=0;align=left;verticalAlign=top;spacingTop=-2;fillColor=none;spacingLeft=64;spacingRight=4;overflow=hidden;rotatable=0;points=[[0,0.5],[1,0.5]];portConstraint=eastwest;dropTarget=0;" parent="kN41-lVZskBi1FOQWb48-139" vertex="1">
          <mxGeometry y="26" width="160" height="26" as="geometry" />
        </mxCell>
        <mxCell id="kN41-lVZskBi1FOQWb48-141" value="PK" style="shape=partialRectangle;top=0;left=0;bottom=0;fillColor=none;align=left;verticalAlign=middle;spacingLeft=4;spacingRight=4;overflow=hidden;rotatable=180;points=[];portConstraint=eastwest;part=1;" parent="kN41-lVZskBi1FOQWb48-140" vertex="1" connectable="0">
          <mxGeometry width="54" height="26" as="geometry" />
        </mxCell>
        <mxCell id="kN41-lVZskBi1FOQWb48-145" style="rounded=0;orthogonalLoop=1;jettySize=auto;html=1;dashed=1;endArrow=oval;endFill=0;" parent="1" source="kN41-lVZskBi1FOQWb48-144" target="kN41-lVZskBi1FOQWb48-122" edge="1">
          <mxGeometry relative="1" as="geometry" />
        </mxCell>
        <mxCell id="kN41-lVZskBi1FOQWb48-146" style="edgeStyle=none;rounded=0;orthogonalLoop=1;jettySize=auto;html=1;dashed=1;endArrow=oval;endFill=0;" parent="1" source="kN41-lVZskBi1FOQWb48-144" target="kN41-lVZskBi1FOQWb48-133" edge="1">
          <mxGeometry relative="1" as="geometry" />
        </mxCell>
        <mxCell id="kN41-lVZskBi1FOQWb48-147" style="edgeStyle=none;rounded=0;orthogonalLoop=1;jettySize=auto;html=1;dashed=1;endArrow=oval;endFill=0;" parent="1" source="kN41-lVZskBi1FOQWb48-144" target="kN41-lVZskBi1FOQWb48-136" edge="1">
          <mxGeometry relative="1" as="geometry" />
        </mxCell>
        <mxCell id="kN41-lVZskBi1FOQWb48-144" value="&lt;div&gt;Shared databases for words associated with technologies. Allows customization of tech labeling.&lt;br&gt;&lt;/div&gt;" style="shape=note2;boundedLbl=1;whiteSpace=wrap;html=1;size=25;verticalAlign=middle;align=center;" parent="1" vertex="1">
          <mxGeometry x="490" y="460" width="120" height="90" as="geometry" />
        </mxCell>
        <mxCell id="rP_htDvcGSaBnDnBmrXa-1" value="`referenced_tweets`" style="swimlane;fontStyle=0;childLayout=stackLayout;horizontal=1;startSize=26;fillColor=default;horizontalStack=0;resizeParent=1;resizeLast=0;collapsible=1;marginBottom=0;swimlaneFillColor=default;align=center;" vertex="1" parent="1">
          <mxGeometry x="1400" y="20" width="210" height="338" as="geometry" />
        </mxCell>
        <mxCell id="rP_htDvcGSaBnDnBmrXa-2" value="`id`" style="shape=partialRectangle;top=0;left=0;right=0;bottom=0;align=left;verticalAlign=top;spacingTop=-2;fillColor=none;spacingLeft=64;spacingRight=4;overflow=hidden;rotatable=0;points=[[0,0.5],[1,0.5]];portConstraint=eastwest;dropTarget=0;" vertex="1" parent="rP_htDvcGSaBnDnBmrXa-1">
          <mxGeometry y="26" width="210" height="26" as="geometry" />
        </mxCell>
        <mxCell id="rP_htDvcGSaBnDnBmrXa-3" value="PK" style="shape=partialRectangle;top=0;left=0;bottom=0;fillColor=none;align=left;verticalAlign=middle;spacingLeft=4;spacingRight=4;overflow=hidden;rotatable=180;points=[];portConstraint=eastwest;part=1;" vertex="1" connectable="0" parent="rP_htDvcGSaBnDnBmrXa-2">
          <mxGeometry width="54" height="26" as="geometry" />
        </mxCell>
        <mxCell id="rP_htDvcGSaBnDnBmrXa-4" value="`author_id`" style="shape=partialRectangle;top=0;left=0;right=0;bottom=0;align=left;verticalAlign=top;spacingTop=-2;fillColor=none;spacingLeft=64;spacingRight=4;overflow=hidden;rotatable=0;points=[[0,0.5],[1,0.5]];portConstraint=eastwest;dropTarget=0;" vertex="1" parent="rP_htDvcGSaBnDnBmrXa-1">
          <mxGeometry y="52" width="210" height="26" as="geometry" />
        </mxCell>
        <mxCell id="rP_htDvcGSaBnDnBmrXa-5" value="" style="shape=partialRectangle;top=0;left=0;bottom=0;fillColor=none;align=left;verticalAlign=middle;spacingLeft=4;spacingRight=4;overflow=hidden;rotatable=180;points=[];portConstraint=eastwest;part=1;" vertex="1" connectable="0" parent="rP_htDvcGSaBnDnBmrXa-4">
          <mxGeometry width="54" height="26" as="geometry" />
        </mxCell>
        <mxCell id="rP_htDvcGSaBnDnBmrXa-6" value="`text`" style="shape=partialRectangle;top=0;left=0;right=0;bottom=0;align=left;verticalAlign=top;spacingTop=-2;fillColor=none;spacingLeft=64;spacingRight=4;overflow=hidden;rotatable=0;points=[[0,0.5],[1,0.5]];portConstraint=eastwest;dropTarget=0;" vertex="1" parent="rP_htDvcGSaBnDnBmrXa-1">
          <mxGeometry y="78" width="210" height="26" as="geometry" />
        </mxCell>
        <mxCell id="rP_htDvcGSaBnDnBmrXa-7" value="" style="shape=partialRectangle;top=0;left=0;bottom=0;fillColor=none;align=left;verticalAlign=middle;spacingLeft=4;spacingRight=4;overflow=hidden;rotatable=180;points=[];portConstraint=eastwest;part=1;" vertex="1" connectable="0" parent="rP_htDvcGSaBnDnBmrXa-6">
          <mxGeometry width="54" height="26" as="geometry" />
        </mxCell>
        <mxCell id="rP_htDvcGSaBnDnBmrXa-8" value="`created_at`" style="shape=partialRectangle;top=0;left=0;right=0;bottom=0;align=left;verticalAlign=top;spacingTop=-2;fillColor=none;spacingLeft=64;spacingRight=4;overflow=hidden;rotatable=0;points=[[0,0.5],[1,0.5]];portConstraint=eastwest;dropTarget=0;" vertex="1" parent="rP_htDvcGSaBnDnBmrXa-1">
          <mxGeometry y="104" width="210" height="26" as="geometry" />
        </mxCell>
        <mxCell id="rP_htDvcGSaBnDnBmrXa-9" value="" style="shape=partialRectangle;top=0;left=0;bottom=0;fillColor=none;align=left;verticalAlign=middle;spacingLeft=4;spacingRight=4;overflow=hidden;rotatable=180;points=[];portConstraint=eastwest;part=1;" vertex="1" connectable="0" parent="rP_htDvcGSaBnDnBmrXa-8">
          <mxGeometry width="54" height="26" as="geometry" />
        </mxCell>
        <mxCell id="rP_htDvcGSaBnDnBmrXa-10" value="`lang`&#xa;" style="shape=partialRectangle;top=0;left=0;right=0;bottom=0;align=left;verticalAlign=top;spacingTop=-2;fillColor=none;spacingLeft=64;spacingRight=4;overflow=hidden;rotatable=0;points=[[0,0.5],[1,0.5]];portConstraint=eastwest;dropTarget=0;" vertex="1" parent="rP_htDvcGSaBnDnBmrXa-1">
          <mxGeometry y="130" width="210" height="26" as="geometry" />
        </mxCell>
        <mxCell id="rP_htDvcGSaBnDnBmrXa-11" value="" style="shape=partialRectangle;top=0;left=0;bottom=0;fillColor=none;align=left;verticalAlign=middle;spacingLeft=4;spacingRight=4;overflow=hidden;rotatable=180;points=[];portConstraint=eastwest;part=1;" vertex="1" connectable="0" parent="rP_htDvcGSaBnDnBmrXa-10">
          <mxGeometry width="54" height="26" as="geometry" />
        </mxCell>
        <mxCell id="rP_htDvcGSaBnDnBmrXa-12" value="`conversation_id`" style="shape=partialRectangle;top=0;left=0;right=0;bottom=0;align=left;verticalAlign=top;spacingTop=-2;fillColor=none;spacingLeft=64;spacingRight=4;overflow=hidden;rotatable=0;points=[[0,0.5],[1,0.5]];portConstraint=eastwest;dropTarget=0;" vertex="1" parent="rP_htDvcGSaBnDnBmrXa-1">
          <mxGeometry y="156" width="210" height="26" as="geometry" />
        </mxCell>
        <mxCell id="rP_htDvcGSaBnDnBmrXa-13" value="" style="shape=partialRectangle;top=0;left=0;bottom=0;fillColor=none;align=left;verticalAlign=middle;spacingLeft=4;spacingRight=4;overflow=hidden;rotatable=180;points=[];portConstraint=eastwest;part=1;" vertex="1" connectable="0" parent="rP_htDvcGSaBnDnBmrXa-12">
          <mxGeometry width="54" height="26" as="geometry" />
        </mxCell>
        <mxCell id="rP_htDvcGSaBnDnBmrXa-14" value="`powertrain_set`" style="shape=partialRectangle;top=0;left=0;right=0;bottom=0;align=left;verticalAlign=top;spacingTop=-2;fillColor=none;spacingLeft=64;spacingRight=4;overflow=hidden;rotatable=0;points=[[0,0.5],[1,0.5]];portConstraint=eastwest;dropTarget=0;" vertex="1" parent="rP_htDvcGSaBnDnBmrXa-1">
          <mxGeometry y="182" width="210" height="26" as="geometry" />
        </mxCell>
        <mxCell id="rP_htDvcGSaBnDnBmrXa-15" value="" style="shape=partialRectangle;top=0;left=0;bottom=0;fillColor=none;align=left;verticalAlign=middle;spacingLeft=4;spacingRight=4;overflow=hidden;rotatable=180;points=[];portConstraint=eastwest;part=1;" vertex="1" connectable="0" parent="rP_htDvcGSaBnDnBmrXa-14">
          <mxGeometry width="54" height="26" as="geometry" />
        </mxCell>
        <mxCell id="rP_htDvcGSaBnDnBmrXa-16" value="`in_reply_to_user_id`" style="shape=partialRectangle;top=0;left=0;right=0;bottom=0;align=left;verticalAlign=top;spacingTop=-2;fillColor=none;spacingLeft=64;spacingRight=4;overflow=hidden;rotatable=0;points=[[0,0.5],[1,0.5]];portConstraint=eastwest;dropTarget=0;" vertex="1" parent="rP_htDvcGSaBnDnBmrXa-1">
          <mxGeometry y="208" width="210" height="26" as="geometry" />
        </mxCell>
        <mxCell id="rP_htDvcGSaBnDnBmrXa-17" value="" style="shape=partialRectangle;top=0;left=0;bottom=0;fillColor=none;align=left;verticalAlign=middle;spacingLeft=4;spacingRight=4;overflow=hidden;rotatable=180;points=[];portConstraint=eastwest;part=1;" vertex="1" connectable="0" parent="rP_htDvcGSaBnDnBmrXa-16">
          <mxGeometry width="54" height="26" as="geometry" />
        </mxCell>
        <mxCell id="rP_htDvcGSaBnDnBmrXa-18" value="`VADERcompound`" style="shape=partialRectangle;top=0;left=0;right=0;bottom=0;align=left;verticalAlign=top;spacingTop=-2;fillColor=none;spacingLeft=64;spacingRight=4;overflow=hidden;rotatable=0;points=[[0,0.5],[1,0.5]];portConstraint=eastwest;dropTarget=0;" vertex="1" parent="rP_htDvcGSaBnDnBmrXa-1">
          <mxGeometry y="234" width="210" height="26" as="geometry" />
        </mxCell>
        <mxCell id="rP_htDvcGSaBnDnBmrXa-19" value="" style="shape=partialRectangle;top=0;left=0;bottom=0;fillColor=none;align=left;verticalAlign=middle;spacingLeft=4;spacingRight=4;overflow=hidden;rotatable=180;points=[];portConstraint=eastwest;part=1;" vertex="1" connectable="0" parent="rP_htDvcGSaBnDnBmrXa-18">
          <mxGeometry width="54" height="26" as="geometry" />
        </mxCell>
        <mxCell id="rP_htDvcGSaBnDnBmrXa-20" value="`VADERneg`" style="shape=partialRectangle;top=0;left=0;right=0;bottom=0;align=left;verticalAlign=top;spacingTop=-2;fillColor=none;spacingLeft=64;spacingRight=4;overflow=hidden;rotatable=0;points=[[0,0.5],[1,0.5]];portConstraint=eastwest;dropTarget=0;" vertex="1" parent="rP_htDvcGSaBnDnBmrXa-1">
          <mxGeometry y="260" width="210" height="26" as="geometry" />
        </mxCell>
        <mxCell id="rP_htDvcGSaBnDnBmrXa-21" value="" style="shape=partialRectangle;top=0;left=0;bottom=0;fillColor=none;align=left;verticalAlign=middle;spacingLeft=4;spacingRight=4;overflow=hidden;rotatable=180;points=[];portConstraint=eastwest;part=1;" vertex="1" connectable="0" parent="rP_htDvcGSaBnDnBmrXa-20">
          <mxGeometry width="54" height="26" as="geometry" />
        </mxCell>
        <mxCell id="rP_htDvcGSaBnDnBmrXa-22" value="`VADERneu`" style="shape=partialRectangle;top=0;left=0;right=0;bottom=0;align=left;verticalAlign=top;spacingTop=-2;fillColor=none;spacingLeft=64;spacingRight=4;overflow=hidden;rotatable=0;points=[[0,0.5],[1,0.5]];portConstraint=eastwest;dropTarget=0;" vertex="1" parent="rP_htDvcGSaBnDnBmrXa-1">
          <mxGeometry y="286" width="210" height="26" as="geometry" />
        </mxCell>
        <mxCell id="rP_htDvcGSaBnDnBmrXa-23" value="" style="shape=partialRectangle;top=0;left=0;bottom=0;fillColor=none;align=left;verticalAlign=middle;spacingLeft=4;spacingRight=4;overflow=hidden;rotatable=180;points=[];portConstraint=eastwest;part=1;" vertex="1" connectable="0" parent="rP_htDvcGSaBnDnBmrXa-22">
          <mxGeometry width="54" height="26" as="geometry" />
        </mxCell>
        <mxCell id="rP_htDvcGSaBnDnBmrXa-24" value="`VADERpos`" style="shape=partialRectangle;top=0;left=0;right=0;bottom=0;align=left;verticalAlign=top;spacingTop=-2;fillColor=none;spacingLeft=64;spacingRight=4;overflow=hidden;rotatable=0;points=[[0,0.5],[1,0.5]];portConstraint=eastwest;dropTarget=0;" vertex="1" parent="rP_htDvcGSaBnDnBmrXa-1">
          <mxGeometry y="312" width="210" height="26" as="geometry" />
        </mxCell>
        <mxCell id="rP_htDvcGSaBnDnBmrXa-25" value="" style="shape=partialRectangle;top=0;left=0;bottom=0;fillColor=none;align=left;verticalAlign=middle;spacingLeft=4;spacingRight=4;overflow=hidden;rotatable=180;points=[];portConstraint=eastwest;part=1;" vertex="1" connectable="0" parent="rP_htDvcGSaBnDnBmrXa-24">
          <mxGeometry width="54" height="26" as="geometry" />
        </mxCell>
        <mxCell id="rP_htDvcGSaBnDnBmrXa-26" value="`tweet_relationships`" style="swimlane;fontStyle=0;childLayout=stackLayout;horizontal=1;startSize=26;fillColor=default;horizontalStack=0;resizeParent=1;resizeLast=0;collapsible=1;marginBottom=0;swimlaneFillColor=default;align=center;" vertex="1" parent="1">
          <mxGeometry x="1140" y="130" width="210" height="104" as="geometry" />
        </mxCell>
        <mxCell id="rP_htDvcGSaBnDnBmrXa-27" value="`this_tweet`" style="shape=partialRectangle;top=0;left=0;right=0;bottom=0;align=left;verticalAlign=top;spacingTop=-2;fillColor=none;spacingLeft=64;spacingRight=4;overflow=hidden;rotatable=0;points=[[0,0.5],[1,0.5]];portConstraint=eastwest;dropTarget=0;" vertex="1" parent="rP_htDvcGSaBnDnBmrXa-26">
          <mxGeometry y="26" width="210" height="26" as="geometry" />
        </mxCell>
        <mxCell id="rP_htDvcGSaBnDnBmrXa-28" value="" style="shape=partialRectangle;top=0;left=0;bottom=0;fillColor=none;align=left;verticalAlign=middle;spacingLeft=4;spacingRight=4;overflow=hidden;rotatable=180;points=[];portConstraint=eastwest;part=1;" vertex="1" connectable="0" parent="rP_htDvcGSaBnDnBmrXa-27">
          <mxGeometry width="54" height="26" as="geometry" />
        </mxCell>
        <mxCell id="rP_htDvcGSaBnDnBmrXa-29" value="`refers_to`" style="shape=partialRectangle;top=0;left=0;right=0;bottom=0;align=left;verticalAlign=top;spacingTop=-2;fillColor=none;spacingLeft=64;spacingRight=4;overflow=hidden;rotatable=0;points=[[0,0.5],[1,0.5]];portConstraint=eastwest;dropTarget=0;" vertex="1" parent="rP_htDvcGSaBnDnBmrXa-26">
          <mxGeometry y="52" width="210" height="26" as="geometry" />
        </mxCell>
        <mxCell id="rP_htDvcGSaBnDnBmrXa-30" value="" style="shape=partialRectangle;top=0;left=0;bottom=0;fillColor=none;align=left;verticalAlign=middle;spacingLeft=4;spacingRight=4;overflow=hidden;rotatable=180;points=[];portConstraint=eastwest;part=1;" vertex="1" connectable="0" parent="rP_htDvcGSaBnDnBmrXa-29">
          <mxGeometry width="54" height="26" as="geometry" />
        </mxCell>
        <mxCell id="rP_htDvcGSaBnDnBmrXa-31" value="`reference_type`" style="shape=partialRectangle;top=0;left=0;right=0;bottom=0;align=left;verticalAlign=top;spacingTop=-2;fillColor=none;spacingLeft=64;spacingRight=4;overflow=hidden;rotatable=0;points=[[0,0.5],[1,0.5]];portConstraint=eastwest;dropTarget=0;" vertex="1" parent="rP_htDvcGSaBnDnBmrXa-26">
          <mxGeometry y="78" width="210" height="26" as="geometry" />
        </mxCell>
        <mxCell id="rP_htDvcGSaBnDnBmrXa-32" value="" style="shape=partialRectangle;top=0;left=0;bottom=0;fillColor=none;align=left;verticalAlign=middle;spacingLeft=4;spacingRight=4;overflow=hidden;rotatable=180;points=[];portConstraint=eastwest;part=1;" vertex="1" connectable="0" parent="rP_htDvcGSaBnDnBmrXa-31">
          <mxGeometry width="54" height="26" as="geometry" />
        </mxCell>
        <mxCell id="rP_htDvcGSaBnDnBmrXa-52" style="rounded=0;orthogonalLoop=1;jettySize=auto;html=1;dashed=1;endArrow=oval;endFill=0;" edge="1" parent="1" source="rP_htDvcGSaBnDnBmrXa-51" target="rP_htDvcGSaBnDnBmrXa-1">
          <mxGeometry relative="1" as="geometry" />
        </mxCell>
        <mxCell id="rP_htDvcGSaBnDnBmrXa-51" value="Same relationships as `retweets` EXCEPT for author_id, which is left unlinked to anyone. Not enough room to show relationships with arrows." style="shape=note;size=20;whiteSpace=wrap;html=1;" vertex="1" parent="1">
          <mxGeometry x="1427.5" y="390" width="155" height="120" as="geometry" />
        </mxCell>
        <mxCell id="rP_htDvcGSaBnDnBmrXa-53" style="edgeStyle=orthogonalEdgeStyle;rounded=0;orthogonalLoop=1;jettySize=auto;html=1;endArrow=classic;endFill=1;startArrow=classic;startFill=1;" edge="1" parent="1" source="kN41-lVZskBi1FOQWb48-70" target="rP_htDvcGSaBnDnBmrXa-27">
          <mxGeometry relative="1" as="geometry" />
        </mxCell>
        <mxCell id="rP_htDvcGSaBnDnBmrXa-54" style="edgeStyle=orthogonalEdgeStyle;rounded=0;orthogonalLoop=1;jettySize=auto;html=1;endArrow=classic;endFill=1;startArrow=classic;startFill=1;" edge="1" parent="1" source="rP_htDvcGSaBnDnBmrXa-2" target="rP_htDvcGSaBnDnBmrXa-29">
          <mxGeometry relative="1" as="geometry" />
        </mxCell>
      </root>
    </mxGraphModel>
  </diagram>
</mxfile>
